<svg xmlns="http://www.w3.org/2000/svg" width="19.751" height="16.047" viewBox="0 0 19.751 16.047"><defs><style>.a{fill:#fff;}</style></defs><path class="a" d="M19.751,49.9a8.442,8.442,0,0,1-2.333.639A4.026,4.026,0,0,0,19.2,48.3a8.092,8.092,0,0,1-2.568.98,4.049,4.049,0,0,0-7,2.769,4.169,4.169,0,0,0,.094.923,11.461,11.461,0,0,1-8.346-4.235A4.05,4.05,0,0,0,2.619,54.15a4,4,0,0,1-1.829-.5V53.7a4.068,4.068,0,0,0,3.244,3.979,4.041,4.041,0,0,1-1.062.133,3.58,3.58,0,0,1-.767-.069,4.088,4.088,0,0,0,3.784,2.821,8.136,8.136,0,0,1-5.02,1.727A7.584,7.584,0,0,1,0,62.231a11.4,11.4,0,0,0,6.212,1.817A11.445,11.445,0,0,0,17.736,52.525c0-.179-.006-.352-.015-.523A8.078,8.078,0,0,0,19.751,49.9Z" transform="translate(0 -48)"/></svg>