<svg xmlns="http://www.w3.org/2000/svg" width="19.425" height="19.424" viewBox="0 0 19.425 19.424"><defs><style>.a{fill:#fff;}</style></defs><path class="a" d="M13.638,0H5.787A5.793,5.793,0,0,0,0,5.787v7.851a5.793,5.793,0,0,0,5.787,5.787h7.851a5.793,5.793,0,0,0,5.787-5.787V5.787A5.793,5.793,0,0,0,13.638,0Zm3.833,13.638a3.833,3.833,0,0,1-3.833,3.833H5.787a3.833,3.833,0,0,1-3.833-3.833V5.787A3.833,3.833,0,0,1,5.787,1.954h7.851a3.833,3.833,0,0,1,3.833,3.833v7.851Z"/><path class="a" d="M138.024,133a5.024,5.024,0,1,0,5.024,5.024A5.03,5.03,0,0,0,138.024,133Zm0,8.094a3.07,3.07,0,1,1,3.07-3.07A3.07,3.07,0,0,1,138.024,141.094Z" transform="translate(-128.312 -128.312)"/><circle class="a" cx="1.204" cy="1.204" r="1.204" transform="translate(13.542 3.522)"/></svg>