<svg xmlns="http://www.w3.org/2000/svg" width="243.802" height="34.5" viewBox="0 0 243.802 34.5"><defs><style>.a{fill:#e62255;}.a,.b{fill-rule:evenodd;}.b{fill:#fc0;}.c{fill:#fff;}</style></defs><path class="a" d="M213.443,5.445H202.379a12.867,12.867,0,0,0,11.058,6.262h.006Z" transform="translate(30.358 0.817)"/><path class="b" d="M213.668,6.262H202.6A12.222,12.222,0,0,1,200.879,0h12.789Z" transform="translate(30.133)"/><path class="c" d="M220.46,19.477a1.057,1.057,0,0,1,.294-.793,1.108,1.108,0,0,1,.81-.288h14.089a.986.986,0,0,1,1.1,1.081q.036.432.036,1.045l-.074,1.513a11.451,11.451,0,0,1-2.244,5.908,13.532,13.532,0,0,1-5.076,4.143,15.879,15.879,0,0,1-6.732,1.477,14.836,14.836,0,0,1-7.229-1.819,14.207,14.207,0,0,1-5.315-4.989,12.952,12.952,0,0,1,0-13.67,14.059,14.059,0,0,1,5.3-4.989,14.943,14.943,0,0,1,18.726,3.566,1.109,1.109,0,0,1,.294.684,1.008,1.008,0,0,1-.589.828l-3.127,1.765a1.488,1.488,0,0,1-.626.18,1.274,1.274,0,0,1-.92-.468,10.371,10.371,0,0,0-3.016-2.342,7.592,7.592,0,0,0-3.495-.864,8.531,8.531,0,0,0-4.323,1.153,8.954,8.954,0,0,0-3.219,3.134,8.041,8.041,0,0,0,0,8.375,8.68,8.68,0,0,0,3.2,3.116,8.3,8.3,0,0,0,4.341,1.189,8.9,8.9,0,0,0,3.348-.666,9,9,0,0,0,2.869-1.819A5.706,5.706,0,0,0,230.5,23.4h-8.939a1.105,1.105,0,0,1-.808-.288,1.057,1.057,0,0,1-.294-.792Zm-32.242,12.5a1.057,1.057,0,0,1-.294.793,1.106,1.106,0,0,1-.81.288h-3.567a1.106,1.106,0,0,1-.81-.288,1.057,1.057,0,0,1-.294-.793V7.338a.643.643,0,0,1,.147-.45.518.518,0,0,1,.4-.162,1.224,1.224,0,0,1,.808.36l17.18,14.877V7.842a1.061,1.061,0,0,1,.294-.793,1.108,1.108,0,0,1,.81-.288h3.605a1.108,1.108,0,0,1,.81.288,1.057,1.057,0,0,1,.294.793V32.121a1.221,1.221,0,0,1-.184.7.556.556,0,0,1-.478.27.821.821,0,0,1-.589-.252L188.219,18.072Zm-8,0a1.057,1.057,0,0,1-.294.793,1.108,1.108,0,0,1-.81.288h-3.6a1.106,1.106,0,0,1-.81-.288,1.057,1.057,0,0,1-.294-.793V7.806a1.057,1.057,0,0,1,.294-.793,1.106,1.106,0,0,1,.81-.288h3.6a1.108,1.108,0,0,1,.81.288,1.057,1.057,0,0,1,.294.793Zm-7.557-21.4a1.061,1.061,0,0,1-.294.793,1.108,1.108,0,0,1-.81.288h-6.7V31.977a1.057,1.057,0,0,1-.294.793,1.1,1.1,0,0,1-.808.288h-3.642a1.106,1.106,0,0,1-.81-.288,1.061,1.061,0,0,1-.294-.793V11.66h-6.732a1.109,1.109,0,0,1-.81-.288,1.061,1.061,0,0,1-.294-.793V7.806a1.062,1.062,0,0,1,.294-.793,1.109,1.109,0,0,1,.81-.288h19.276a1.108,1.108,0,0,1,.81.288,1.061,1.061,0,0,1,.294.793Zm-37.575,6.952h11.771a1.109,1.109,0,0,1,.81.288,1.061,1.061,0,0,1,.294.792v2.81a1.061,1.061,0,0,1-.294.793,1.109,1.109,0,0,1-.81.288H135.088v5.62h13.463a1.108,1.108,0,0,1,.81.288,1.057,1.057,0,0,1,.294.793v2.773a1.057,1.057,0,0,1-.294.793,1.108,1.108,0,0,1-.81.288H130.379a1.108,1.108,0,0,1-.81-.288,1.057,1.057,0,0,1-.294-.793V7.806a1.057,1.057,0,0,1,.294-.793,1.108,1.108,0,0,1,.81-.288h18.172a1.108,1.108,0,0,1,.81.288,1.057,1.057,0,0,1,.294.793V10.58a1.057,1.057,0,0,1-.294.793,1.108,1.108,0,0,1-.81.288H135.088ZM110.719,31.977a1.058,1.058,0,0,1-.294.793,1.107,1.107,0,0,1-.809.288h-3.6a1.107,1.107,0,0,1-.809-.288,1.058,1.058,0,0,1-.294-.793V7.806a1.059,1.059,0,0,1,.294-.793,1.107,1.107,0,0,1,.809-.288h3.6a1.107,1.107,0,0,1,.809.288,1.059,1.059,0,0,1,.294.793v9.906L120.652,7.3a1.807,1.807,0,0,1,1.36-.576h4.525a1.2,1.2,0,0,1,.68.162.515.515,0,0,1,.24.45,1.031,1.031,0,0,1-.368.721l-9.75,9.834L127.9,31.725a1.194,1.194,0,0,1,.258.684.559.559,0,0,1-.239.468,1.188,1.188,0,0,1-.718.18h-4.6a1.532,1.532,0,0,1-1.36-.648L113.33,21.855l-2.612,2.666ZM93.266,19.909a3.9,3.9,0,0,0,2.777-1.1A3.855,3.855,0,0,0,97.2,15.875a4.77,4.77,0,0,0-.938-2.99,3.537,3.537,0,0,0-3-1.225h-6.18v8.249Zm-6.18,12.067a1.058,1.058,0,0,1-.294.793,1.107,1.107,0,0,1-.809.288H82.413a1.107,1.107,0,0,1-.809-.288,1.058,1.058,0,0,1-.294-.793V7.806a1.059,1.059,0,0,1,.294-.793,1.107,1.107,0,0,1,.809-.288H93.266a10.811,10.811,0,0,1,5.077,1.153,8.322,8.322,0,0,1,3.421,3.242,9.29,9.29,0,0,1,1.214,4.755,9.024,9.024,0,0,1-1.471,5.079,8.6,8.6,0,0,1-4.01,3.278l1.03,1.3q.7.865,1.876,2.359t2.98,3.836a1.008,1.008,0,0,1,.294.684.56.56,0,0,1-.239.468,1.113,1.113,0,0,1-.68.18H98.343a1.69,1.69,0,0,1-1.361-.612q-2.8-3.494-5.923-7.6H87.086Zm-18-7.817-3.458-6.88L62.2,24.16Zm-16.738,8.9a1.119,1.119,0,0,1-.7-.2.627.627,0,0,1-.257-.522,1.373,1.373,0,0,1,.184-.576L64.851,7.3q.331-.576.772-.576A.828.828,0,0,1,66.4,7.3L79.676,31.76a1.376,1.376,0,0,1,.184.576.628.628,0,0,1-.258.522,1.12,1.12,0,0,1-.7.2h-4.01a1.4,1.4,0,0,1-1.288-.793l-1.729-3.242H59.332l-1.656,3.242a1.305,1.305,0,0,1-1.288.793ZM48.428,7.41a1.1,1.1,0,0,1,.736-.432.521.521,0,0,1,.46.252,1.235,1.235,0,0,1,.166.684V31.977a1.058,1.058,0,0,1-.294.793,1.107,1.107,0,0,1-.809.288H45.043a1.107,1.107,0,0,1-.809-.288,1.058,1.058,0,0,1-.294-.793V20.485l-7.468,8.465a.959.959,0,0,1-.772.432,1.116,1.116,0,0,1-.772-.432l-7.468-8.465V31.977a1.058,1.058,0,0,1-.294.793,1.107,1.107,0,0,1-.809.288H22.713a1.107,1.107,0,0,1-.809-.288,1.058,1.058,0,0,1-.294-.793V7.914a1.232,1.232,0,0,1,.166-.684.521.521,0,0,1,.46-.252,1.009,1.009,0,0,1,.736.432L35.7,21.458ZM18.688,28.122a1.108,1.108,0,0,1,.809.288,1.059,1.059,0,0,1,.294.793v2.773a1.058,1.058,0,0,1-.294.793,1.107,1.107,0,0,1-.809.288H1.4a1.106,1.106,0,0,1-.809-.288,1.058,1.058,0,0,1-.294-.793V28.555a1.592,1.592,0,0,1,.625-1.3l3.568-2.846,5.628-4.431a12.043,12.043,0,0,0,2.814-2.774,4.808,4.808,0,0,0,.717-2.594,2.939,2.939,0,0,0-1.122-2.5,4.6,4.6,0,0,0-2.851-.847q-2.649,0-3.936,3.17a1.074,1.074,0,0,1-.993.793,2.072,2.072,0,0,1-.4-.072L.846,14.326Q0,14.11,0,13.425a.985.985,0,0,1,.074-.432A12.217,12.217,0,0,1,1.894,9.985,10.693,10.693,0,0,1,4.745,7.554,9.505,9.505,0,0,1,9.675,6.293a11.39,11.39,0,0,1,5.334,1.171,8.114,8.114,0,0,1,3.385,3.152,7.746,7.746,0,0,1,1.1,4,8.449,8.449,0,0,1-1.49,4.737,21.936,21.936,0,0,1-4.433,4.665L12.066,25.2l-1.618,1.225q-1.141.937-2.207,1.693Z" transform="translate(0 0.939)"/></svg>